<?xml version="1.0" encoding="utf-8"?>
<svg version="1.1" xmlns:xlink="http://www.w3.org/1999/xlink" width="24px" height="26px" xmlns="http://www.w3.org/2000/svg">
  <g>
    <path d="M 1.8461538461538463 19.96428571428571  L 1.8461538461538463 24.142857142857142  L 6 24.142857142857142  L 6 19.96428571428571  L 1.8461538461538463 19.96428571428571  Z M 6.9230769230769225 19.96428571428571  L 6.9230769230769225 24.142857142857142  L 11.538461538461538 24.142857142857142  L 11.538461538461538 19.96428571428571  L 6.9230769230769225 19.96428571428571  Z M 1.8461538461538463 14.392857142857144  L 1.8461538461538463 19.03571428571429  L 6 19.03571428571429  L 6 14.392857142857144  L 1.8461538461538463 14.392857142857144  Z M 6.9230769230769225 14.392857142857144  L 6.9230769230769225 19.03571428571429  L 11.538461538461538 19.03571428571429  L 11.538461538461538 14.392857142857144  L 6.9230769230769225 14.392857142857144  Z M 1.8461538461538463 9.285714285714285  L 1.8461538461538463 13.464285714285712  L 6 13.464285714285712  L 6 9.285714285714285  L 1.8461538461538463 9.285714285714285  Z M 12.461538461538463 19.96428571428571  L 12.461538461538463 24.142857142857142  L 17.076923076923077 24.142857142857142  L 17.076923076923077 19.96428571428571  L 12.461538461538463 19.96428571428571  Z M 6.9230769230769225 9.285714285714285  L 6.9230769230769225 13.464285714285712  L 11.538461538461538 13.464285714285712  L 11.538461538461538 9.285714285714285  L 6.9230769230769225 9.285714285714285  Z M 18 19.96428571428571  L 18 24.142857142857142  L 22.153846153846153 24.142857142857142  L 22.153846153846153 19.96428571428571  L 18 19.96428571428571  Z M 12.461538461538463 14.392857142857144  L 12.461538461538463 19.03571428571429  L 17.076923076923077 19.03571428571429  L 17.076923076923077 14.392857142857144  L 12.461538461538463 14.392857142857144  Z M 7.247596153846153 6.826450892857144  C 7.338942307692308 6.734561011904761  7.384615384615385 6.625744047619045  7.384615384615385 6.5  L 7.384615384615385 2.321428571428572  C 7.384615384615385 2.1956845238095237  7.338942307692308 2.0868675595238084  7.247596153846153 1.9949776785714282  C 7.156250000000001 1.903087797619045  7.048076923076923 1.8571428571428563  6.9230769230769225 1.8571428571428563  L 6 1.8571428571428563  C 5.875 1.8571428571428563  5.766826923076923 1.903087797619045  5.675480769230769 1.9949776785714282  C 5.584134615384615 2.0868675595238084  5.538461538461538 2.1956845238095237  5.538461538461538 2.321428571428572  L 5.538461538461538 6.5  C 5.538461538461538 6.625744047619045  5.584134615384615 6.734561011904761  5.675480769230769 6.826450892857144  C 5.766826923076923 6.918340773809524  5.875 6.964285714285715  6 6.964285714285715  L 6.9230769230769225 6.964285714285715  C 7.048076923076923 6.964285714285715  7.156250000000001 6.918340773809524  7.247596153846153 6.826450892857144  Z M 18 14.392857142857144  L 18 19.03571428571429  L 22.153846153846153 19.03571428571429  L 22.153846153846153 14.392857142857144  L 18 14.392857142857144  Z M 12.461538461538463 9.285714285714285  L 12.461538461538463 13.464285714285712  L 17.076923076923077 13.464285714285712  L 17.076923076923077 9.285714285714285  L 12.461538461538463 9.285714285714285  Z M 18 9.285714285714285  L 18 13.464285714285712  L 22.153846153846153 13.464285714285712  L 22.153846153846153 9.285714285714285  L 18 9.285714285714285  Z M 18.32451923076923 6.826450892857144  C 18.415865384615387 6.734561011904761  18.461538461538463 6.625744047619045  18.461538461538463 6.5  L 18.461538461538463 2.321428571428572  C 18.461538461538463 2.1956845238095237  18.415865384615387 2.0868675595238084  18.32451923076923 1.9949776785714282  C 18.23317307692308 1.903087797619045  18.125 1.8571428571428563  18 1.8571428571428563  L 17.076923076923077 1.8571428571428563  C 16.95192307692308 1.8571428571428563  16.84375 1.903087797619045  16.752403846153847 1.9949776785714282  C 16.661057692307693 2.0868675595238084  16.615384615384613 2.1956845238095237  16.615384615384613 2.321428571428572  L 16.615384615384613 6.5  C 16.615384615384613 6.625744047619045  16.661057692307693 6.734561011904761  16.752403846153847 6.826450892857144  C 16.84375 6.918340773809524  16.95192307692308 6.964285714285715  17.076923076923077 6.964285714285715  L 18 6.964285714285715  C 18.125 6.964285714285715  18.23317307692308 6.918340773809524  18.32451923076923 6.826450892857144  Z M 23.451923076923077 4.265625  C 23.817307692307693 4.633184523809524  24 5.0684523809523805  24 5.571428571428572  L 24 24.142857142857142  C 24 24.645833333333332  23.817307692307693 25.08110119047619  23.451923076923077 25.448660714285715  C 23.086538461538463 25.81622023809524  22.653846153846157 26  22.153846153846153 26  L 1.8461538461538463 26  C 1.3461538461538463 26  0.9134615384615385 25.81622023809524  0.548076923076923 25.448660714285715  C 0.18269230769230768 25.08110119047619  0 24.645833333333332  0 24.142857142857142  L 0 5.571428571428572  C 0 5.0684523809523805  0.18269230769230768 4.633184523809524  0.548076923076923 4.265625  C 0.9134615384615385 3.898065476190473  1.3461538461538463 3.7142857142857153  1.8461538461538463 3.7142857142857153  L 3.6923076923076925 3.7142857142857153  L 3.6923076923076925 2.321428571428572  C 3.6923076923076925 1.6830357142857155  3.918269230769231 1.1365327380952366  4.3701923076923075 0.6819196428571437  C 4.822115384615385 0.2273065476190479  5.365384615384616 0  6 0  L 6.9230769230769225 0  C 7.5576923076923075 0  8.10096153846154 0.2273065476190479  8.552884615384615 0.6819196428571437  C 9.004807692307693 1.1365327380952366  9.230769230769232 1.6830357142857155  9.230769230769232 2.321428571428572  L 9.230769230769232 3.7142857142857153  L 14.76923076923077 3.7142857142857153  L 14.76923076923077 2.321428571428572  C 14.76923076923077 1.6830357142857155  14.995192307692308 1.1365327380952366  15.447115384615385 0.6819196428571437  C 15.899038461538463 0.2273065476190479  16.442307692307693 0  17.076923076923077 0  L 18 0  C 18.634615384615387 0  19.177884615384617 0.2273065476190479  19.629807692307693 0.6819196428571437  C 20.081730769230774 1.1365327380952366  20.307692307692307 1.6830357142857155  20.307692307692307 2.321428571428572  L 20.307692307692307 3.7142857142857153  L 22.153846153846153 3.7142857142857153  C 22.653846153846157 3.7142857142857153  23.086538461538463 3.898065476190473  23.451923076923077 4.265625  Z " fill-rule="nonzero" fill="#333333" stroke="none" />
  </g>
</svg>