<?xml version="1.0" encoding="utf-8"?>
<!-- Generator: Adobe Illustrator 23.0.3, SVG Export Plug-In . SVG Version: 6.00 Build 0)  -->
<svg version="1.1" id="Layer_1" xmlns="http://www.w3.org/2000/svg" xmlns:xlink="http://www.w3.org/1999/xlink" x="0px" y="0px"
	 viewBox="0 0 797.02 164" style="enable-background:new 0 0 797.02 164;" xml:space="preserve">
<style type="text/css">
	.st0{fill:#FFFFFF;}
</style>
<path class="st0" d="M0,62.87L111.72,0l109.23,63.49v22.1h-17.43v78.12H17.12V85.59H0V62.87z M111.71,23.68l-71.89,41.7v78.43
	h142.22V65.39L111.71,23.68z M73.48,95.27v-19.3h74.38v19.3H73.48z M73.48,104.89h74.38v19.3H73.48V104.89z"/>
<path class="st0" d="M534.42,164V95.44h35.8c25.57,0,43.47,7.81,43.47,35.58c0,26.9-16.2,32.98-44.32,32.98H534.42z M553.16,110.16
	v39.05h15.34c14.49,0,24.72-2.6,24.72-18.23c0-13.89-11.08-20.83-23.01-20.83H553.16z"/>
<path class="st0" d="M720.31,164V95.44h49.44c18.75,0,26.42,6.08,26.42,21.7c0,11.28-5.97,16.49-18.75,18.23l19.6,28.64h-20.46
	l-19.6-28.64h-17.9V164H720.31z M767.1,110.18h-28.13v10.41h27.27c9.38,0,11.93,0,11.93-5.21
	C778.18,111.05,774.78,110.18,767.1,110.18z"/>
<polygon class="st0" points="432.17,95.44 432.17,164 450.07,164 450.07,122.34 485.87,164 507.18,164 507.18,95.44 489.28,95.44 
	489.28,137.96 453.48,95.44 "/>
<polygon class="st0" points="257.34,95.44 257.34,164 324.68,164 324.68,149.25 276.1,148.38 276.1,95.44 "/>
<polygon class="st0" points="343.53,164 409.16,164 409.16,149.25 363.13,149.25 363.13,134.49 401.49,134.49 401.49,120.61 
	363.13,120.61 363.13,110.19 409.16,110.19 409.16,95.44 343.53,95.44 "/>
<polygon class="st0" points="634.2,95.44 634.2,164 698.98,163.13 698.98,149.25 652.95,149.25 652.95,134.49 692.16,134.49 
	692.16,120.61 652.95,120.61 652.95,110.19 698.98,110.19 698.98,95.44 "/>
<path class="st0" d="M390.31,78.04l17.04-61.62h14.49l17.05,61.62h-13.27l-3.77-13.89H406.5l-3.77,13.89H390.31z M414.24,29.58
	l-5.11,24.3h11.08L414.24,29.58z"/>
<path class="st0" d="M295.75,55.49V39c0-15.62,5.11-24.3,20.46-24.3c17.05,0,20.46,10.42,20.46,25.17v13.02
	c0,7.81-0.86,11.28-3.41,16.49l10.23,3.47l-0.85,4.34C307.68,77.19,295.75,76.32,295.75,55.49z M308.5,39.86v14.75
	c0,11.28,1.7,14.75,7.67,14.75c6.82,0,7.67-2.6,7.67-13.89V38.99c0-12.15-0.85-13.89-6.82-13.89
	C309.35,25.1,308.5,28.57,308.5,39.86z"/>
<path class="st0" d="M641.8,61.55c0,9.55,5.97,17.36,19.6,17.36c11.08,0,21.31-7.81,21.31-17.36c0-14.75-27.28-21.7-27.28-31.24
	c0-3.47,3.41-5.21,6.82-5.21c5.11,0,7.67,3.47,10.23,8.68l8.52-3.47c-0.85-8.68-6.82-15.62-19.6-15.62
	c-10.23,0-18.75,5.21-18.75,15.62c0,17.36,27.27,21.7,27.27,32.98c0,4.34-2.56,6.08-7.67,6.08c-5.12,0-8.53-3.47-10.23-9.55
	L641.8,61.55z"/>
<path class="st0" d="M549.85,58.08V38.12c0-16.49,7.67-23.43,20.46-23.43c16.19,0,20.46,6.07,20.46,21.69v19.09
	c0,16.49-4.26,23.43-20.46,23.43C554.12,78.9,549.85,72.83,549.85,58.08z M562.61,37.25v19.09c0,8.68,0.85,13.02,7.67,13.02
	c5.12,0,7.67-3.47,7.67-13.89V37.25c0-6.94-0.85-13.02-7.67-13.02C563.46,24.24,562.61,29.44,562.61,37.25z"/>
<path class="st0" d="M755.18,55.47c0,18.22,5.11,23.43,22.16,23.43c13.2,0,17.05-6.3,17.05-13.02V45.93h-17.9v9.55h5.97v6.94
	c0,5.21-1.7,7.81-5.97,7.81c-8.53,0-9.38-6.08-9.38-14.75V41.59c0-10.41,0.85-17.36,9.38-17.36c5.97,0,9.37,4.34,10.23,10.41
	l8.53-3.47c-0.85-10.41-7.67-16.49-19.6-16.49c-17.05,0-20.46,9.55-20.46,22.56V55.47z"/>
<path class="st0" d="M595.87,16.42V52c0,20.83,3.51,27.49,21.41,27.49c13.64,0,18.65-7.53,18.65-25.75V16.42h-11.93V52
	c0,13.89-0.85,17.36-7.67,17.36c-6.82,0-7.67-5.21-7.67-18.22V16.42H595.87z"/>
<polygon class="st0" points="709.17,16.43 709.17,78.04 719.4,78.04 719.4,36.39 733.89,78.04 749.23,78.04 749.23,16.43 739,16.43 
	739,54.61 725.36,16.43 "/>
<path class="st0" d="M348.68,16.42v37.32c0,17.36,1.7,25.17,18.75,25.17c19.6,0,20.46-9.55,20.46-26.9V16.42h-11.93v36.45
	c0,12.15-1.7,15.62-7.67,15.62c-6.82,0-7.67-3.47-7.67-17.36V16.42H348.68z"/>
<polygon class="st0" points="502.92,16.43 502.92,78.04 514.85,78.04 514.85,50.27 529.35,50.27 529.35,78.04 541.28,78.04 
	541.28,16.43 529.35,16.43 529.35,39.86 514.85,39.86 514.85,16.43 "/>
<polygon class="st0" points="256.57,16.43 256.57,78.04 287.26,78.04 287.26,68.5 268.51,68.5 268.51,51.14 285.56,51.14 
	285.56,42.46 268.51,42.46 268.51,25.97 287.26,25.97 287.26,16.43 "/>
<polygon class="st0" points="444.08,16.43 444.08,78.04 472.21,78.04 472.21,68.5 454.31,68.5 454.31,16.43 "/>
<rect x="688.82" y="16.43" class="st0" width="11.08" height="61.62"/>
</svg>
