<?xml version="1.0" encoding="utf-8"?>
<svg version="1.1" xmlns:xlink="http://www.w3.org/1999/xlink" width="87px" height="87px" xmlns="http://www.w3.org/2000/svg">
  <g transform="matrix(1 0 0 1 -120 -178 )">
    <path d="M 73.57440293937539 20.683823529411768  C 74.56889161053276 19.688725490196077  75.06613594611146 18.480392156862738  75.06613594611146 17.05882352941176  C 75.06613594611146 15.637254901960777  74.56889161053276 14.428921568627437  73.57440293937539 13.433823529411764  C 72.57991426821802 12.438725490196074  71.37232088181263 11.941176470588232  69.95162278015921 11.941176470588232  C 68.53092467850583 11.941176470588232  67.32333129210043 12.438725490196074  66.32884262094305 13.433823529411764  C 65.33435394978568 14.428921568627437  64.83710961420698 15.637254901960777  64.83710961420698 17.05882352941176  C 64.83710961420698 18.480392156862738  65.33435394978568 19.688725490196077  66.32884262094305 20.683823529411768  C 67.32333129210043 21.67892156862744  68.53092467850583 22.176470588235293  69.95162278015921 22.176470588235293  C 71.37232088181263 22.176470588235293  72.57991426821802 21.67892156862744  73.57440293937539 20.683823529411768  Z M 86.46723821187997 0.5064338235294148  C 86.82241273729333 0.8440563725490118  87 1.2438725490196034  87 1.7058823529411802  C 87 10.55514705882353  85.65921616656462 18.204963235294116  82.97764849969381 24.655330882352946  C 80.29608083282304 31.105698529411764  75.79424372320882 37.51164215686275  69.47213717085118 43.873161764705884  C 66.59522351500306 46.71629901960784  63.1322718922229 49.84375000000001  59.08328230251071 53.25551470588235  L 58.01775872627067 73.4595588235294  C 57.946723821188 74.0281862745098  57.662584200857324 74.49019607843137  57.16533986527863 74.84558823529412  L 36.70728720146968 86.78676470588235  C 36.45866503368034 86.92892156862744  36.17452541334966 87  35.854868340477644 87  C 35.42865890998163 87  35.020208205756276 86.84007352941177  34.629516227801595 86.52022058823529  L 31.219840783833437 83.10845588235294  C 30.758113900796083 82.61090686274511  30.616044090630744 82.04227941176471  30.793631353337418 81.40257352941177  L 35.322106552357624 66.68933823529412  L 20.351500306184935 51.70955882352941  L 5.64727495407226 56.24080882352941  C 5.540722596448255 56.27634803921568  5.380894060012247 56.29411764705882  5.167789344764238 56.29411764705882  C 4.670545009185549 56.29411764705882  4.262094304960197 56.134191176470594  3.942437232088181 55.81433823529412  L 0.5327617881200245 52.40257352941176  C -0.07103490508267006 51.72732843137255  -0.15982853643600736 51.034313725490186  0.26638089406001225 50.3235294117647  L 12.20024494794856 29.852941176470587  C 12.555419473361912 29.355392156862738  13.017146356399266 29.07107843137254  13.585425597060624 29.000000000000004  L 33.777097366809556 27.93382352941176  C 37.18677281077771 23.88235294117647  40.31230863441519 20.41727941176471  43.15370483772199 17.538602941176467  C 49.83098591549296 10.892769607843137  56.18860992039192 6.308210784313722  62.22657685241886 3.7849264705882315  C 68.26454378444582 1.2616421568627407  75.91855480710349 0  85.18860992039191 0  C 85.68585425597063 0  86.11206368646664 0.1688112745097985  86.46723821187997 0.5064338235294148  Z " fill-rule="nonzero" fill="#000000" stroke="none" transform="matrix(1 0 0 1 120 178 )" />
  </g>
</svg>