<?xml version="1.0" encoding="utf-8"?>
<svg version="1.1" xmlns:xlink="http://www.w3.org/1999/xlink" width="87px" height="87px" xmlns="http://www.w3.org/2000/svg">
  <g transform="matrix(1 0 0 1 -313 -178 )">
    <path d="M 25 27.681818181818187  L 25 40  L 62 40  L 62 27.681818181818187  C 62.833333333333336 23.315340909090907  60.9453125 19.58735795454545  57.169270833333336 16.497869318181813  C 53.393229166666664 13.408380681818187  48.836805555555564 11.863636363636363  43.5 11.863636363636363  C 38.16319444444445 11.863636363636363  33.606770833333336 13.408380681818187  29.830729166666664 16.497869318181813  C 26.0546875 19.58735795454545  24.166666666666668 23.315340909090907  25 27.681818181818187  Z M 84.88541666666667 41.27556818181819  C 86.2951388888889 42.42897727272727  87 43.829545454545446  87 45.47727272727273  L 87 81.06818181818183  C 87 82.7159090909091  86.2951388888889 84.11647727272727  84.88541666666667 85.26988636363636  C 83.47569444444446 86.42329545454545  81.7638888888889 87  79.75 87  L 7.25 87  C 5.236111111111112 87  3.5243055555555562 86.42329545454545  2.1145833333333335 85.26988636363636  C 0.704861111111111 84.11647727272727  0 82.7159090909091  0 81.06818181818183  L 0 45.47727272727273  C 0 43.829545454545446  0.704861111111111 42.42897727272727  2.1145833333333335 41.27556818181819  C 3.5243055555555562 40.12215909090909  5.236111111111112 39.54545454545455  7.25 39.54545454545455  L 10 39.54545454545455  L 10 27.681818181818187  C 9.666666666666666 20.10227272727272  12.989583333333334 13.59375  19.635416666666668 8.15625  C 26.28125 2.71875  34.236111111111114 0  43.5 0  C 52.76388888888889 0  60.71875 2.71875  67.36458333333333 8.15625  C 74.01041666666667 13.59375  77.33333333333333 20.10227272727272  77 27.681818181818187  L 77 39.54545454545455  L 79.75 39.54545454545455  C 81.7638888888889 39.54545454545455  83.47569444444446 40.12215909090909  84.88541666666667 41.27556818181819  Z " fill-rule="nonzero" fill="#000000" stroke="none" transform="matrix(1 0 0 1 313 178 )" />
  </g>
</svg>