<?xml version="1.0" encoding="utf-8"?>
<svg version="1.1" xmlns:xlink="http://www.w3.org/1999/xlink" width="87px" height="50px" xmlns="http://www.w3.org/2000/svg">
  <g transform="matrix(1 0 0 1 -664 -197 )">
    <path d="M 34.800000000000004 31.25  L 34.800000000000004 35  L 52.199999999999996 35  L 52.199999999999996 31.25  L 46 31.25  L 46 13.750000000000002  L 41.234375 13.750000000000002  L 34.528124999999996 19.101562500000004  L 38.0171875 22.226562500000004  C 39.285937499999996 21.26302083333333  40.11666666666667 20.520833333333332  40.509375 20  L 41 20  L 41 31.25  L 34.800000000000004 31.25  Z M 57.048437500000006 19.453125  C 57.6828125 21.328124999999996  58 23.177083333333332  58 25  C 58 26.822916666666664  57.6828125 28.671875000000004  57.048437500000006 30.546875  C 56.4140625 32.421875  55.51536458333333 34.166666666666664  54.35234375 35.78125  C 53.18932291666667 37.39583333333333  51.65625 38.7109375  49.753125000000004 39.7265625  C 47.85 40.7421875  45.76562500000001 41.25  43.5 41.25  C 41.234375 41.25  39.150000000000006 40.7421875  37.246874999999996 39.7265625  C 35.34375 38.7109375  33.81067708333334 37.39583333333333  32.64765625 35.78125  C 31.484635416666666 34.166666666666664  30.5859375 32.421875  29.9515625 30.546875  C 29.3171875 28.671875000000004  29 26.822916666666664  29 25  C 29 23.177083333333332  29.3171875 21.328124999999996  29.9515625 19.453125  C 30.5859375 17.578125  31.484635416666666 15.833333333333332  32.64765625 14.218750000000002  C 33.81067708333334 12.60416666666666  35.34375 11.289062499999996  37.246874999999996 10.273437499999998  C 39.150000000000006 9.257812500000002  41.234375 8.750000000000002  43.5 8.750000000000002  C 45.76562500000001 8.750000000000002  47.85 9.257812500000002  49.753125000000004 10.273437499999998  C 51.65625 11.289062499999996  53.18932291666667 12.60416666666666  54.35234375 14.218750000000002  C 55.51536458333333 15.833333333333332  56.4140625 17.578125  57.048437500000006 19.453125  Z M 72.99843750000001 37.9296875  C 75.26406250000001 35.9765625  77.99791666666667 35  81 35  L 81 15.000000000000002  C 77.99791666666667 15.000000000000002  75.26406250000001 14.023437500000002  72.99843750000001 12.070312500000002  C 70.7328125 10.117187500000002  69.60000000000001 7.760416666666659  69.60000000000001 5  L 17.400000000000002 5  C 17.400000000000002 7.760416666666659  16.2671875 10.117187500000002  14.0015625 12.070312500000002  C 11.735937499999999 14.023437500000002  9.002083333333333 15.000000000000002  6 15.000000000000002  L 6 35  C 9.002083333333333 35  11.735937499999999 35.9765625  14.0015625 37.9296875  C 16.2671875 39.8828125  17.400000000000002 42.23958333333333  17.400000000000002 45  L 69.60000000000001 45  C 69.60000000000001 42.23958333333333  70.7328125 39.8828125  72.99843750000001 37.9296875  Z M 86.1390625 0.7421875000000022  C 86.71302083333335 1.236979166666663  87.00000000000001 1.822916666666663  87 2.500000000000002  L 87 47.5  C 87.00000000000001 48.17708333333333  86.71302083333335 48.76302083333333  86.1390625 49.2578125  C 85.56510416666667 49.75260416666667  84.88541666666667 50  84.1 50  L 2.9 50  C 2.1145833333333335 50  1.4348958333333333 49.75260416666667  0.8609374999999999 49.2578125  C 0.2869791666666667 48.76302083333333  0 48.17708333333333  0 47.5  L 0 2.500000000000002  C 0 1.822916666666663  0.2869791666666667 1.236979166666663  0.8609374999999999 0.7421875000000022  C 1.4348958333333333 0.24739583333333037  2.1145833333333335 0  2.9 0  L 84.1 0  C 84.88541666666667 0  85.56510416666667 0.24739583333333037  86.1390625 0.7421875000000022  Z " fill-rule="nonzero" fill="#000000" stroke="none" transform="matrix(1 0 0 1 664 197 )" />
  </g>
</svg>