<?xml version="1.0" encoding="utf-8"?>
<svg version="1.1" xmlns:xlink="http://www.w3.org/1999/xlink" width="87px" height="87px" xmlns="http://www.w3.org/2000/svg">
  <g transform="matrix(1 0 0 1 -840 -23 )">
    <path d="M 74.49442379182156 49.70459859703819  C 74.53035935563817 49.7950116913484  74.54832713754647 49.93063133281372  74 50.11145752143414  L 74 82.6601714731099  C 74.54832713754647 83.83554169914262  74.20693928128873 84.8526890101325  73.52416356877323 85.7116134060795  C 72.84138785625775 86.57053780202651  72.03283767038415 87  71.0985130111524 87  L 50 87  L 50 61  L 37 61  L 37 87  L 15.901486988847584 87  C 14.967162329615864 87  14.158612143742257 86.57053780202651  13.475836431226766 85.7116134060795  C 12.793060718711278 84.8526890101325  12.451672862453531 83.83554169914262  13 82.6601714731099  L 13 50.11145752143414  C 12.451672862453531 50.06625097427903  12.460656753407683 49.99844115354637  12.478624535315985 49.908028059236166  C 12.49659231722429 49.81761496492595  12.50557620817844 49.749805144193296  12.50557620817844 49.70459859703819  L 43.5 17.56274356975838  L 74.49442379182156 49.70459859703819  Z M 86.9460966542751 43.83904910366329  C 86.9820322180917 44.44933749025721  86.85625774473358 44.980514419329694  86.56877323420073 45.43257989088075  L 83.22676579925651 50.45050662509743  C 82.93928128872368 50.85736554949338  82.56195786864933 51.10600155884646  82.09479553903346 51.196414653156666  L 81.93308550185873 51.196414653156666  C 81.46592317224288 51.196414653156666  81.08859975216853 51.03819173811379  80.80111524163569 50.721745908028055  L 43.5 11.59547934528449  L 6.198884758364312 50.721745908028055  C 5.767657992565056 51.08339828526889  5.336431226765799 51.24162120031177  4.905204460966543 51.196414653156666  C 4.438042131350682 51.10600155884646  4.0607187112763325 50.85736554949338  3.7732342007434942 50.45050662509743  L 0.4312267657992565 45.43257989088075  C 0.1437422552664189 44.980514419329694  0.017967781908302484 44.44933749025721  0.05390334572490706 43.83904910366329  C 0.08983890954151204 43.22876071706937  0.2874845105328378 42.74279033515199  0.6468401486988847 42.38113795791114  L 39.40334572490706 1.7630553390491062  C 40.553283767038415 0.5876851130163591  41.918835192069395 0  43.5 0  C 45.08116480793061 0  46.44671623296159 0.5876851130163591  47.59665427509294 1.7630553390491062  L 60 15.596258768511298  L 60 2.37334372564302  C 60.74907063197026 1.7404520654715416  60.91078066914498 1.2205767731878376  61.23420074349442 0.8137178487918981  C 61.55762081784386 0.40685892439594906  61.97087980173482 0.20342946219797453  62.473977695167285 1  L 72.82342007434944 1  C 73.32651796778191 0.20342946219797453  73.73977695167285 0.40685892439594906  74.06319702602231 0.8137178487918981  C 74.38661710037175 1.2205767731878376  74.54832713754647 1.7404520654715416  74 2.37334372564302  L 74 30.03975058456742  L 86.35315985130111 42.38113795791114  C 86.71251548946717 42.74279033515199  86.9101610904585 43.22876071706937  86.9460966542751 43.83904910366329  Z " fill-rule="nonzero" fill="#000000" stroke="none" transform="matrix(1 0 0 1 840 23 )" />
  </g>
</svg>