<?xml version="1.0" encoding="utf-8"?>
<svg version="1.1" xmlns:xlink="http://www.w3.org/1999/xlink" width="51px" height="60px" xmlns="http://www.w3.org/2000/svg">
  <g transform="matrix(1 0 0 1 -1449 -16 )">
    <path d="M 42.5 17.142857142857142  C 42.5 20.424107142857142  41.62565104166667 23.459821428571423  39.876953125 26.25  C 40.917317708333336 26.562499999999996  41.907877604166664 26.986607142857142  42.8486328125 27.522321428571427  C 43.789388020833336 28.058035714285715  44.7744140625 28.872767857142854  45.8037109375 29.966517857142858  C 46.8330078125 31.060267857142854  47.712890625 32.349330357142854  48.443359375 33.83370535714286  C 49.173828125 35.318080357142854  49.782552083333336 37.23772321428571  50.26953125 39.59263392857143  C 50.75651041666666 41.947544642857146  51 44.58705357142857  51 47.511160714285715  C 51 50.94866071428572  49.893229166666664 53.88950892857142  47.6796875 56.33370535714286  C 45.46614583333334 58.777901785714285  42.798828125 60  39.677734375 60  L 11.322265625 60  C 8.201171875 60  5.533854166666668 58.777901785714285  3.3203125000000004 56.33370535714286  C 1.106770833333333 53.88950892857142  0 50.94866071428572  0 47.511160714285715  C 0 44.58705357142857  0.24348958333333331 41.947544642857146  0.73046875 39.59263392857143  C 1.2174479166666667 37.23772321428571  1.8261718749999998 35.318080357142854  2.556640625 33.83370535714286  C 3.287109375 32.349330357142854  4.1669921875 31.060267857142854  5.1962890625 29.966517857142858  C 6.2255859375 28.872767857142854  7.210611979166668 28.058035714285715  8.1513671875 27.522321428571427  C 9.092122395833334 26.986607142857142  10.082682291666668 26.562499999999996  11.123046875 26.25  C 9.374348958333336 23.459821428571423  8.5 20.424107142857142  8.5 17.142857142857142  C 8.5 14.821428571428566  8.9482421875 12.606026785714285  9.8447265625 10.496651785714285  C 10.7412109375 8.387276785714285  11.953125 6.5625  13.480468750000002 5.022321428571425  C 15.007812499999998 3.482142857142858  16.8173828125 2.260044642857142  18.9091796875 1.3560267857142838  C 21.0009765625 0.4520089285714257  23.197916666666668 0  25.5 0  C 27.802083333333336 0  29.999023437500004 0.4520089285714257  32.0908203125 1.3560267857142838  C 34.1826171875 2.260044642857142  35.9921875 3.482142857142858  37.51953125 5.022321428571425  C 39.046875 6.5625  40.2587890625 8.387276785714285  41.1552734375 10.496651785714285  C 42.0517578125 12.606026785714285  42.5 14.821428571428566  42.5 17.142857142857142  Z M 34.5146484375 8.052455357142858  C 32.02441406250001 5.541294642857142  29.019531250000004 4.285714285714284  25.5 4.285714285714284  C 21.98046875 4.285714285714284  18.9755859375 5.541294642857142  16.4853515625 8.052455357142858  C 13.9951171875 10.563616071428575  12.75 13.59375  12.75 17.142857142857142  C 12.75 20.691964285714285  13.9951171875 23.722098214285715  16.4853515625 26.233258928571427  C 18.9755859375 28.744419642857142  21.98046875 30  25.5 30  C 29.019531250000004 30  32.02441406250001 28.744419642857142  34.5146484375 26.233258928571427  C 37.0048828125 23.722098214285715  38.25 20.691964285714285  38.25 17.142857142857142  C 38.25 13.59375  37.0048828125 10.563616071428575  34.5146484375 8.052455357142858  Z M 11.322265625 55  L 39.677734375 55  C 41.62565104166667 55.714285714285715  43.291341145833336 54.916294642857146  44.6748046875 53.3203125  C 46.05826822916667 51.724330357142854  46.75 49.78794642857143  46.75 47.511160714285715  C 46.75 42.176339285714285  45.881184895833336 37.96875  44.1435546875 34.88839285714286  C 42.405924479166664 31.808035714285715  39.91015625 30.18973214285714  36.65625 30.033482142857142  C 33.446614583333336 32.86830357142857  29.727864583333336 34.285714285714285  25.5 34.285714285714285  C 21.272135416666668 34.285714285714285  17.55338541666667 32.86830357142857  14.34375 30.033482142857142  C 11.08984375 30.18973214285714  8.594075520833334 31.808035714285715  6.856445312499999 34.88839285714286  C 5.118815104166667 37.96875  4.25 42.176339285714285  4.25 47.511160714285715  C 4.25 49.78794642857143  4.941731770833334 51.724330357142854  6.3251953125 53.3203125  C 7.708658854166668 54.916294642857146  9.374348958333336 55.714285714285715  11.322265625 55  Z " fill-rule="nonzero" fill="#333333" stroke="none" transform="matrix(1 0 0 1 1449 16 )" />
  </g>
</svg>