<?xml version="1.0" encoding="utf-8"?>
<svg version="1.1" xmlns:xlink="http://www.w3.org/1999/xlink" width="87px" height="87px" xmlns="http://www.w3.org/2000/svg">
  <g transform="matrix(1 0 0 1 -840 -187 )">
    <path d="M 62.021484375 11.186523437499996  C 56.27650669642858 8.56217447916666  50.10267857142857 7.2500000000000036  43.5 7.2500000000000036  C 36.89732142857143 7.2500000000000036  30.72349330357143 8.56217447916666  24.978515625 11.186523437499996  C 19.233537946428573 13.810872395833332  14.669921875000002 17.35091145833333  11.287667410714286 21.806640624999996  C 7.905412946428572 26.262369791666654  6.2142857142857135 31.07682291666666  6.2142857142857135 36.25  C 6.2142857142857135 40.479166666666664  7.371372767857144 44.510091145833336  9.685546875 48.3427734375  C 11.999720982142858 52.175455729166664  15.26060267857143 55.488932291666664  19.468191964285715 58.283203125  L 23.691964285714285 61.11523437499999  L 22.381138392857146 66.552734375  C 21.604352678571427 69.98893229166667  20.47154017857143 73.236328125  18.982700892857142 76.294921875  C 23.902343750000004 73.916015625  28.352678571428573 70.6875  32.333705357142854 66.609375  L 34.421316964285715 64.45703125  L 37.18861607142857 64.796875  C 39.421875 65.09895833333333  41.525669642857146 65.25  43.5 65.25  C 50.10267857142857 65.25  56.27650669642858 63.93782552083332  62.021484375 61.31347656250001  C 67.76646205357143 58.68912760416665  72.330078125 55.149088541666664  75.71233258928571 50.69335937500001  C 79.09458705357143 46.23763020833333  80.78571428571429 41.423177083333336  80.78571428571429 36.25  C 80.78571428571429 31.07682291666666  79.09458705357143 26.262369791666654  75.71233258928571 21.806640624999996  C 72.330078125 17.35091145833333  67.76646205357143 13.810872395833332  62.021484375 11.186523437499996  Z M 81.17410714285714 18.040039062500004  C 85.05803571428571 23.609700520833325  87 29.679687500000004  87 36.25  C 87 42.8203125  85.05803571428571 48.89029947916666  81.17410714285714 54.4599609375  C 77.29017857142857 60.02962239583332  72.01450892857143 64.4287109375  65.34709821428571 67.6572265625  C 58.67968750000001 70.8857421875  51.39732142857143 72.5  43.5 72.5  C 41.234375 72.5  38.88783482142857 72.34895833333333  36.460379464285715 72.046875  C 30.051897321428573 78.65494791666667  22.607700892857146 83.22395833333333  14.127790178571427 85.75390625  C 12.54185267857143 86.28255208333333  10.696986607142858 86.69791666666667  8.593191964285714 87  L 8.350446428571429 87  C 7.864955357142857 87  7.428013392857143 86.8017578125  7.0396205357142865 86.4052734375  C 6.651227678571429 86.0087890625  6.3922991071428585 85.48958333333333  6.262834821428571 84.84765625  L 6.262834821428571 84.791015625  C 6.1657366071428585 84.63997395833334  6.157645089285714 84.41341145833334  6.238560267857143 84.111328125  C 6.319475446428573 83.80924479166667  6.351841517857144 83.62044270833333  6.335658482142857 83.544921875  C 6.319475446428573 83.46940104166667  6.3922991071428585 83.2900390625  6.5541294642857135 83.0068359375  L 6.845424107142857 82.4970703125  C 6.845424107142857 82.4970703125  6.958705357142858 82.33658854166667  7.185267857142857 82.015625  C 7.4118303571428585 81.69466145833333  7.541294642857144 81.52473958333333  7.5736607142857135 81.505859375  C 7.800223214285715 81.20377604166667  8.301897321428571 80.55240885416667  9.078683035714286 79.5517578125  C 9.85546875 78.55110677083333  10.413783482142858 77.83365885416667  10.753627232142858 77.3994140625  C 11.093470982142858 76.96516927083333  11.595145089285715 76.21940104166667  12.258649553571427 75.162109375  C 12.922154017857144 74.10481770833333  13.448102678571427 73.14192708333333  13.836495535714286 72.2734375  C 14.224888392857142 71.40494791666667  14.661830357142858 70.291015625  15.147321428571427 68.931640625  C 15.6328125 67.572265625  16.05357142857143 66.13736979166667  16.409598214285715 64.626953125  C 11.328125 61.266276041666664  7.322823660714286 57.11263020833333  4.393694196428571 52.166015625  C 1.464564732142857 47.21940104166665  0 41.9140625  0 36.25  C 0 29.679687500000004  1.9419642857142858 23.609700520833325  5.825892857142857 18.040039062500004  C 9.70982142857143 12.47037760416666  14.985491071428571 8.0712890625  21.652901785714285 4.8427734375  C 28.320312500000004 1.6142578125  35.60267857142858 0  43.5 0  C 51.39732142857143 0  58.67968750000001 1.6142578125  65.34709821428571 4.8427734375  C 72.01450892857143 8.0712890625  77.29017857142857 12.47037760416666  81.17410714285714 18.040039062500004  Z " fill-rule="nonzero" fill="#000000" stroke="none" transform="matrix(1 0 0 1 840 187 )" />
  </g>
</svg>