<?xml version="1.0" encoding="utf-8"?>
<svg version="1.1" xmlns:xlink="http://www.w3.org/1999/xlink" width="87px" height="87px" xmlns="http://www.w3.org/2000/svg">
  <g transform="matrix(1 0 0 1 -317 -23 )">
    <path d="M 45.3125 50.35351562500001  L 66.98697916666667 40.1015625  L 67.66666666666667 58.00000000000001  C 67.76736111111111 60.60546874999999  66.73524305555556 63.02213541666665  64.5703125 65.25  C 62.40538194444445 67.47786458333333  59.4474826388889 69.2431640625  55.696614583333336 70.5458984375  C 51.94574652777778 71.8486328125  47.880208333333336 72.5  43.5 72.5  C 39.119791666666664 72.5  35.05425347222223 71.8486328125  31.303385416666668 70.5458984375  C 27.55251736111111 69.2431640625  24.59461805555556 67.47786458333333  22.4296875 65.25  C 20.264756944444446 63.02213541666665  19.23263888888889 60.60546874999999  19.333333333333332 58.00000000000001  L 20.013020833333332 40.1015625  L 41.6875 50.35351562500001  C 42.24131944444445 50.61783854166667  42.845486111111114 50.74999999999999  43.5 50.74999999999999  C 44.1545138888889 50.74999999999999  44.758680555555564 50.61783854166667  45.3125 50.35351562500001  Z M 86.16927083333333 19.994140625000004  C 86.72309027777779 20.296223958333325  87 20.88151041666666  87 21.75  C 87 22.61848958333333  86.72309027777779 23.203776041666654  86.16927083333333 23.505859374999996  L 43.877604166666664 43.443359375  C 43.77690972222223 43.481119791666664  43.65104166666667 43.5  43.5 43.5  C 43.348958333333336 43.5  43.22309027777778 43.481119791666664  43.122395833333336 43.443359375  L 18.502604166666668 31.775390625  C 17.420138888888893 33.05924479166666  16.526475694444446 35.16438802083333  15.821614583333334 38.0908203125  C 15.116753472222225 41.017252604166664  14.688802083333334 44.38736979166666  14.537760416666666 48.20117187499999  C 16.123697916666668 49.56054687499999  16.916666666666668 51.61848958333332  16.916666666666668 54.375  C 16.916666666666668 56.98046875000001  16.186631944444446 59.00065104166666  14.7265625 60.43554687499999  L 16.916666666666668 84.9609375  C 16.96701388888889 85.48958333333333  16.866319444444446 85.96158854166667  16.614583333333332 86.376953125  C 16.388020833333332 86.79231770833333  16.0859375 87  15.708333333333334 87  L 8.458333333333334 87  C 8.080729166666666 87  7.778645833333333 86.79231770833333  7.552083333333333 86.376953125  C 7.300347222222222 85.96158854166667  7.199652777777779 85.48958333333333  7.25 84.9609375  L 9.440104166666666 60.43554687499999  C 7.980034722222222 59.00065104166666  7.25 56.98046875000001  7.25 54.375  C 7.25 51.61848958333332  8.06814236111111 49.522786458333336  9.704427083333334 48.087890625  C 9.981336805555557 40.271484375  11.21484375 34.041015625  13.404947916666666 29.396484375  L 0.8307291666666667 23.505859374999996  C 0.2769097222222222 23.203776041666654  0 22.61848958333333  0 21.75  C 0 20.88151041666666  0.2769097222222222 20.296223958333325  0.8307291666666667 19.994140625000004  L 43.122395833333336 0.05664062499999678  C 43.22309027777778 0.01888020833332904  43.348958333333336 0  43.5 0  C 43.65104166666667 0  43.77690972222223 0.01888020833332904  43.877604166666664 0.05664062499999678  L 86.16927083333333 19.994140625000004  Z " fill-rule="nonzero" fill="#000000" stroke="none" transform="matrix(1 0 0 1 317 23 )" />
  </g>
</svg>